<svg xmlns="http://www.w3.org/2000/svg" width="124.905" height="26.373" viewBox="0 0 124.905 26.373">
  <g id="Group_1" data-name="Group 1" transform="translate(-3 -3)">
    <path id="Path_1" data-name="Path 1" d="M50.536,12.456c0,1.512-.84,2.5-2.712,2.5H45.016v-4.92h2.808C49.7,10.032,50.536,10.968,50.536,12.456Zm-8.88-5.208V24h3.36V17.472H46.6L50.3,24h3.888l-4.008-6.792a4.837,4.837,0,0,0,3.816-4.824c0-2.808-2.016-5.136-6.048-5.136Zm27.735,10.1a6.84,6.84,0,1,0-13.68,0,6.508,6.508,0,0,0,6.744,6.864A6.647,6.647,0,0,0,69.391,17.352Zm-10.272,0c0-2.664,1.608-3.936,3.384-3.936s3.432,1.272,3.432,3.936c0,2.64-1.7,3.936-3.48,3.936C60.655,21.288,59.119,19.992,59.119,17.352Zm25.1,0a6.84,6.84,0,1,0-13.68,0,6.508,6.508,0,0,0,6.744,6.864A6.647,6.647,0,0,0,84.216,17.352Zm-10.272,0c0-2.664,1.608-3.936,3.384-3.936s3.432,1.272,3.432,3.936c0,2.64-1.7,3.936-3.48,3.936C75.48,21.288,73.944,19.992,73.944,17.352Zm11.393,0c0,4.176,2.736,6.864,6.576,6.864a6.065,6.065,0,0,0,6.264-4.7H94.552a2.536,2.536,0,0,1-2.664,1.824c-1.872,0-3.12-1.392-3.12-3.984s1.248-4.008,3.12-4.008a2.612,2.612,0,0,1,2.664,1.848h3.624c-.72-2.976-2.952-4.7-6.264-4.7C88.072,10.488,85.336,13.176,85.336,17.352ZM100.158,24h3.36V16.656c0-2.136,1.176-3.288,3-3.288,1.776,0,2.952,1.152,2.952,3.288V24h3.36V16.2c0-3.672-2.184-5.688-5.184-5.688a5.109,5.109,0,0,0-4.128,1.848V6.24h-3.36Zm21.1-10.752a2.954,2.954,0,0,1,3.168,2.856h-6.312A3.088,3.088,0,0,1,121.257,13.248Zm6.312,6.576h-3.624a2.74,2.74,0,0,1-2.664,1.608,3.111,3.111,0,0,1-3.192-3.072h9.72a7.854,7.854,0,0,0,.1-1.3,6.242,6.242,0,0,0-6.552-6.576c-3.936,0-6.672,2.664-6.672,6.864,0,4.176,2.808,6.864,6.672,6.864A6.18,6.18,0,0,0,127.569,19.824Z" fill="#23262f"/>
    <g id="ROOCHE_LOGO_SVG-06" data-name="ROOCHE LOGO SVG-06" transform="translate(-4.46 -3.93)">
      <rect id="Rectangle_2" data-name="Rectangle 2" width="26.373" height="26.373" transform="translate(7.46 6.93)" fill="#eb1c30"/>
      <path id="Path_2" data-name="Path 2" d="M35.79,43.756,31.159,33.329h-8.64v3.944h-.941v.944h-.944l0-.944V31.44H32.387l5.13,11.549Z" transform="translate(-8.195 -15.251)" fill="#fff"/>
      <path id="Path_3" data-name="Path 3" d="M32.348,29.942H26.454V28.053h5.893a4.012,4.012,0,1,0,0-8.024H21.63V18.14H32.348a5.9,5.9,0,1,1,0,11.8Z" transform="translate(-8.817 -6.975)" fill="#fff"/>
      <path id="Path_4" data-name="Path 4" d="M26.786,52.025H20.64V44.843h1.889v5.293H24.9V44.39h1.889Z" transform="translate(-8.201 -23.308)" fill="#fff"/>
    </g>
  </g>
</svg>
